<svg width="114" height="25" viewBox="0 0 114 25" fill="none" xmlns="http://www.w3.org/2000/svg">
<path fill-rule="evenodd" clip-rule="evenodd" d="M12.5001 12.4999L12.4664 12.5C12.0114 12.5 11.5816 12.4638 11.1769 12.3915C10.0541 12.1909 9.12486 11.7118 8.38934 10.9543C8.11021 10.6625 7.8706 10.327 7.67052 9.9477C7.24435 9.13992 6.99749 8.13381 6.92993 6.92938C6.91721 6.70249 6.91084 6.46857 6.91084 6.2276C6.91084 4.1368 7.38127 2.57616 8.32213 1.5457C9.27793 0.515233 10.6818 0 12.5336 0C14.266 0 15.625 0.515233 16.6107 1.5457C17.5963 2.57616 18.0892 4.1368 18.0892 6.2276C18.0892 6.46876 18.083 6.70287 18.0706 6.92993C16.8662 6.99749 15.8601 7.24435 15.0523 7.67052C15.0906 7.22786 15.1098 6.74689 15.1098 6.2276C15.1098 5.1374 15.0202 4.23387 14.8409 3.51702C14.6767 2.80018 14.4004 2.26255 14.0121 1.90412C13.6387 1.53076 13.131 1.34409 12.4888 1.34409C11.8616 1.34409 11.3538 1.53076 10.9655 1.90412C10.5772 2.26255 10.3009 2.80018 10.1366 3.51702C9.97237 4.23387 9.89023 5.1374 9.89023 6.2276C9.89023 6.73996 9.90838 7.21275 9.94466 7.64594C9.98558 8.1345 10.0496 8.57271 10.1366 8.96057C10.3159 9.69235 10.5921 10.2449 10.9655 10.6183C11.33 10.9688 11.8064 11.1547 12.3946 11.1762C12.433 11.1776 12.4719 11.1783 12.5112 11.1783C12.544 11.1783 12.5764 11.1778 12.6085 11.1769C12.5362 11.5816 12.5 12.0114 12.5 12.4664L12.5001 12.4999Z" fill="#9A9A9A"/>
<path fill-rule="evenodd" clip-rule="evenodd" d="M6.2276 18.0892C6.46857 18.0892 6.70249 18.0828 6.92938 18.0701C8.13381 18.0025 9.13992 17.7556 9.9477 17.3295C10.3269 17.1294 10.6625 16.8898 10.9543 16.6107C11.7118 15.8751 12.1909 14.9459 12.3915 13.8231C12.4638 13.4184 12.5 12.9886 12.5 12.5336L12.5 12.5126L12.5001 12.4999L12.4664 12.5C12.0114 12.5 11.5816 12.4638 11.1769 12.3915C11.1778 12.4236 11.1783 12.456 11.1783 12.4888C11.1783 12.5281 11.1776 12.567 11.1762 12.6054C11.1547 13.1936 10.9688 13.67 10.6183 14.0345C10.2449 14.4079 9.69235 14.6841 8.96057 14.8634C8.57271 14.9504 8.1345 15.0144 7.64594 15.0553C7.21274 15.0916 6.73996 15.1098 6.2276 15.1098C5.1374 15.1098 4.23387 15.0276 3.51702 14.8634C2.80018 14.6991 2.26255 14.4228 1.90412 14.0345C1.53076 13.6462 1.34409 13.1384 1.34409 12.5112C1.34409 11.869 1.53076 11.3613 1.90412 10.9879C2.26255 10.5996 2.80018 10.3233 3.51702 10.1591C4.23387 9.97984 5.1374 9.89023 6.2276 9.89023C6.74689 9.89023 7.22786 9.90939 7.67052 9.9477C7.24435 9.13992 6.99749 8.13381 6.92993 6.92938C6.70287 6.91702 6.46876 6.91084 6.2276 6.91084C4.1368 6.91084 2.57616 7.40367 1.5457 8.38934C0.515233 9.375 0 10.734 0 12.4664C0 14.3182 0.515233 15.7221 1.5457 16.6779C2.57616 17.6187 4.1368 18.0892 6.2276 18.0892Z" fill="#9A9A9A"/>
<path fill-rule="evenodd" clip-rule="evenodd" d="M18.0701 18.0706C18.0025 16.8662 17.7557 15.8601 17.3295 15.0523C17.1294 14.6731 16.8898 14.3375 16.6107 14.0457C15.8751 13.2882 14.9459 12.8092 13.8231 12.6085C13.4184 12.5362 12.9886 12.5 12.5336 12.5L12.5001 12.4999L12.5 12.5126L12.5 12.5336C12.5 12.9886 12.4638 13.4184 12.3915 13.8231C12.4236 13.8222 12.456 13.8217 12.4888 13.8217C12.5281 13.8217 12.567 13.8224 12.6054 13.8238C13.1936 13.8453 13.67 14.0312 14.0345 14.3817C14.4079 14.7551 14.6841 15.3076 14.8634 16.0394C14.9504 16.4273 15.0144 16.8655 15.0553 17.3541C15.0916 17.7873 15.1098 18.26 15.1098 18.7724C15.1098 19.8626 15.0276 20.7661 14.8634 21.483C14.6991 22.1998 14.4228 22.7375 14.0345 23.0959C13.6462 23.4692 13.1384 23.6559 12.5112 23.6559C11.869 23.6559 11.3613 23.4692 10.9879 23.0959C10.5996 22.7375 10.3233 22.1998 10.1591 21.483C9.97984 20.7661 9.89023 19.8626 9.89023 18.7724C9.89023 18.2531 9.90939 17.7721 9.9477 17.3295C9.13992 17.7556 8.13381 18.0025 6.92938 18.0701C6.91702 18.2971 6.91084 18.5312 6.91084 18.7724C6.91084 20.8632 7.40367 22.4238 8.38934 23.4543C9.375 24.4848 10.734 25 12.4664 25C14.3182 25 15.7221 24.4848 16.6779 23.4543C17.6187 22.4238 18.0892 20.8632 18.0892 18.7724C18.0892 18.5314 18.0828 18.2975 18.0701 18.0706Z" fill="#9A9A9A"/>
<path fill-rule="evenodd" clip-rule="evenodd" d="M12.5 12.4664L12.5001 12.4999L12.5336 12.5C12.9886 12.5 13.4184 12.5362 13.8231 12.6085C13.8222 12.5764 13.8217 12.544 13.8217 12.5112C13.8217 12.4719 13.8224 12.433 13.8238 12.3946C13.8453 11.8064 14.0312 11.33 14.3817 10.9655C14.7551 10.5921 15.3076 10.3159 16.0394 10.1366C16.4273 10.0496 16.8655 9.98558 17.3541 9.94466C17.7873 9.90838 18.26 9.89023 18.7724 9.89023C19.8626 9.89023 20.7661 9.97237 21.483 10.1366C22.1998 10.3009 22.7375 10.5772 23.0959 10.9655C23.4692 11.3538 23.6559 11.8616 23.6559 12.4888C23.6559 13.131 23.4692 13.6387 23.0959 14.0121C22.7375 14.4004 22.1998 14.6767 21.483 14.841C20.7661 15.0202 19.8626 15.1098 18.7724 15.1098C18.2531 15.1098 17.7721 15.0906 17.3295 15.0523C17.7557 15.8601 18.0025 16.8662 18.0701 18.0706C18.2971 18.083 18.5312 18.0892 18.7724 18.0892C20.8632 18.0892 22.4238 17.5963 23.4543 16.6107C24.4848 15.625 25 14.266 25 12.5336C25 10.6818 24.4848 9.27793 23.4543 8.32213C22.4238 7.38127 20.8632 6.91084 18.7724 6.91084C18.5314 6.91084 18.2975 6.9172 18.0706 6.92993C16.8662 6.99749 15.8601 7.24435 15.0523 7.67052C14.673 7.8706 14.3375 8.11021 14.0457 8.38934C13.2882 9.12486 12.8092 10.0541 12.6085 11.1769C12.5362 11.5816 12.5 12.0114 12.5 12.4664Z" fill="#9A9A9A"/>
<path d="M40.0536 23C39.0919 23 38.3043 22.8026 37.6907 22.4078C37.0938 21.9965 36.6129 21.4701 36.2481 20.8286H36.0491L35.4522 22.7532H31V21.5442H31.199C31.5306 21.5442 31.8457 21.503 32.1441 21.4208C32.4426 21.3385 32.683 21.174 32.8654 20.9273C33.0478 20.6805 33.139 20.3104 33.139 19.8169V6.86234C33.139 6.38528 33.0478 6.0316 32.8654 5.8013C32.683 5.55455 32.4426 5.39827 32.1441 5.33247C31.8457 5.25022 31.514 5.20909 31.1492 5.20909H31V4H36.3725V8.34286C36.3725 8.58961 36.3642 8.91861 36.3476 9.32987C36.331 9.72467 36.3062 10.1195 36.273 10.5143C36.2564 10.8926 36.2398 11.1887 36.2232 11.4026H36.3476C36.729 10.7446 37.2099 10.2264 37.7902 9.84805C38.3872 9.45325 39.1665 9.25584 40.1282 9.25584C41.7533 9.25584 42.9969 9.80693 43.8591 10.9091C44.7214 11.9948 45.1525 13.7221 45.1525 16.0909C45.1525 17.6866 44.9535 18.9944 44.5556 20.0143C44.1742 21.0342 43.6021 21.7909 42.8394 22.2844C42.0766 22.7615 41.148 23 40.0536 23ZM39.2577 21.2481C39.8712 21.2481 40.3687 21.0506 40.7501 20.6558C41.1314 20.2446 41.405 19.6606 41.5709 18.9039C41.7533 18.1307 41.8445 17.1848 41.8445 16.0662C41.8445 14.9312 41.7533 13.9935 41.5709 13.2532C41.405 12.4965 41.1314 11.929 40.7501 11.5506C40.3687 11.1723 39.8629 10.9831 39.2328 10.9831C38.1384 10.9831 37.384 11.4026 36.9694 12.2416C36.5715 13.0805 36.3725 14.3636 36.3725 16.0909C36.3725 17.2095 36.4554 18.1472 36.6212 18.9039C36.8036 19.6606 37.1021 20.2446 37.5166 20.6558C37.9477 21.0506 38.5281 21.2481 39.2577 21.2481Z" fill="#9A9A9A"/>
<path d="M44.6901 22.7532V21.5442H45.0134C45.3119 21.5442 45.6021 21.5113 45.884 21.4455C46.1659 21.3632 46.398 21.2069 46.5804 20.9766C46.7794 20.7299 46.8789 20.368 46.8789 19.8909V6.76364C46.8789 6.30303 46.7794 5.9658 46.5804 5.75195C46.3814 5.52165 46.141 5.37359 45.8591 5.30779C45.5772 5.24199 45.2953 5.20909 45.0134 5.20909H44.6901V4H50.1123V19.8909C50.1123 20.368 50.2035 20.7299 50.3859 20.9766C50.5849 21.2069 50.8253 21.3632 51.1072 21.4455C51.4057 21.5113 51.6959 21.5442 51.9778 21.5442H52.3011V22.7532H44.6901Z" fill="#9A9A9A"/>
<path d="M58.012 23C56.1051 23 54.5961 22.4325 53.4852 21.2974C52.3908 20.1623 51.8436 18.4268 51.8436 16.0909C51.8436 13.7879 52.3659 12.0688 53.4105 10.9338C54.4718 9.7987 56.0305 9.23117 58.0866 9.23117C60.0101 9.23117 61.519 9.7987 62.6134 10.9338C63.7078 12.0688 64.255 13.7879 64.255 16.0909C64.255 18.4268 63.7244 20.1623 62.6631 21.2974C61.6185 22.4325 60.0681 23 58.012 23ZM58.0617 21.5442C58.7747 21.5442 59.3385 21.3468 59.753 20.9519C60.1842 20.5407 60.4909 19.9238 60.6733 19.1013C60.8557 18.2788 60.9469 17.2753 60.9469 16.0909C60.9469 14.89 60.8474 13.8948 60.6485 13.1052C60.4661 12.3156 60.1593 11.7234 59.7282 11.3286C59.3136 10.9173 58.7499 10.7117 58.0368 10.7117C57.3404 10.7117 56.7766 10.9173 56.3455 11.3286C55.9144 11.7234 55.6076 12.3156 55.4252 13.1052C55.2428 13.8948 55.1516 14.89 55.1516 16.0909C55.1516 17.2918 55.2428 18.2952 55.4252 19.1013C55.6242 19.9074 55.931 20.516 56.3455 20.9273C56.7766 21.3385 57.3487 21.5442 58.0617 21.5442Z" fill="#9A9A9A"/>
<path d="M70.8288 23C68.9219 23 67.413 22.4325 66.302 21.2974C65.2076 20.1623 64.6604 18.4268 64.6604 16.0909C64.6604 13.7879 65.1827 12.0688 66.2274 10.9338C67.2886 9.7987 68.8473 9.23117 70.9034 9.23117C72.8269 9.23117 74.3358 9.7987 75.4302 10.9338C76.5246 12.0688 77.0718 13.7879 77.0718 16.0909C77.0718 18.4268 76.5412 20.1623 75.48 21.2974C74.4353 22.4325 72.8849 23 70.8288 23ZM70.8786 21.5442C71.5916 21.5442 72.1553 21.3468 72.5699 20.9519C73.001 20.5407 73.3078 19.9238 73.4902 19.1013C73.6726 18.2788 73.7638 17.2753 73.7638 16.0909C73.7638 14.89 73.6643 13.8948 73.4653 13.1052C73.2829 12.3156 72.9761 11.7234 72.545 11.3286C72.1305 10.9173 71.5667 10.7117 70.8537 10.7117C70.1572 10.7117 69.5935 10.9173 69.1623 11.3286C68.7312 11.7234 68.4245 12.3156 68.2421 13.1052C68.0597 13.8948 67.9685 14.89 67.9685 16.0909C67.9685 17.2918 68.0597 18.2952 68.2421 19.1013C68.441 19.9074 68.7478 20.516 69.1623 20.9273C69.5935 21.3385 70.1655 21.5442 70.8786 21.5442Z" fill="#9A9A9A"/>
<path d="M76.8057 22.7532V21.5442H76.9549C77.3363 21.5442 77.6679 21.503 77.9498 21.4208C78.2483 21.3385 78.4804 21.174 78.6462 20.9273C78.8121 20.6805 78.895 20.3104 78.895 19.8169V12.3156C78.895 11.8385 78.8121 11.4848 78.6462 11.2545C78.497 11.0242 78.2815 10.8762 77.9996 10.8104C77.7343 10.7281 77.4192 10.687 77.0544 10.687H76.9798V9.52727H81.7056L82.0289 11.3779H82.1533C82.4849 10.7528 82.8414 10.2922 83.2228 9.9961C83.6042 9.68355 84.0187 9.47792 84.4664 9.37922C84.9307 9.28052 85.4199 9.23117 85.9339 9.23117C86.5143 9.23117 87.0449 9.30519 87.5258 9.45325C88.0066 9.6013 88.4295 9.8316 88.7943 10.1442C89.1591 10.4403 89.441 10.8515 89.6399 11.3779H89.8389C90.1706 10.7528 90.5436 10.2922 90.9582 9.9961C91.3727 9.68355 91.8121 9.47792 92.2764 9.37922C92.7573 9.28052 93.2631 9.23117 93.7937 9.23117C95.0705 9.23117 96.0654 9.60952 96.7784 10.3662C97.508 11.1229 97.8728 12.3403 97.8728 14.0182V19.7922C97.8728 20.3022 97.9391 20.6805 98.0718 20.9273C98.221 21.174 98.4283 21.3385 98.6936 21.4208C98.9589 21.503 99.2739 21.5442 99.6387 21.5442H99.7133V22.7532H94.6393V14.487C94.6393 13.4177 94.4735 12.5952 94.1419 12.0195C93.8102 11.4273 93.2382 11.1312 92.4257 11.1312C91.8453 11.1312 91.3727 11.2957 91.0079 11.6247C90.6597 11.9537 90.4027 12.3896 90.2369 12.9325C90.0876 13.4753 90.013 14.0675 90.013 14.7091V19.7922C90.013 20.2857 90.0794 20.6641 90.212 20.9273C90.3612 21.174 90.5685 21.3385 90.8338 21.4208C91.0991 21.503 91.4142 21.5442 91.779 21.5442H91.8536V22.7532H86.7796V14.487C86.7796 13.4177 86.6138 12.5952 86.2821 12.0195C85.9505 11.4273 85.3784 11.1312 84.5659 11.1312C83.9524 11.1312 83.4632 11.3121 83.0984 11.674C82.7502 12.0359 82.5015 12.513 82.3523 13.1052C82.203 13.6974 82.1284 14.339 82.1284 15.0299V19.9156C82.1284 20.3926 82.2113 20.7463 82.3771 20.9766C82.543 21.2069 82.7668 21.3632 83.0487 21.4455C83.3306 21.5113 83.6539 21.5442 84.0187 21.5442H84.0933V22.7532H76.8057Z" fill="#9A9A9A"/>
<path d="M98.8526 22.7532V21.5442H98.9521C99.3335 21.5442 99.6734 21.503 99.9718 21.4208C100.27 21.3385 100.502 21.174 100.668 20.9273C100.851 20.6805 100.942 20.3104 100.942 19.8169V12.3649C100.942 11.8879 100.859 11.5342 100.693 11.3039C100.527 11.0736 100.303 10.9255 100.022 10.8597C99.7563 10.7775 99.4412 10.7364 99.0764 10.7364H98.9769V9.52727H103.752L104.076 11.3779H104.2C104.532 10.7528 104.888 10.2922 105.27 9.9961C105.668 9.68355 106.091 9.47792 106.538 9.37922C107.003 9.28052 107.5 9.23117 108.031 9.23117C109.324 9.23117 110.335 9.60952 111.065 10.3662C111.795 11.1229 112.159 12.3403 112.159 14.0182V19.7922C112.159 20.3022 112.226 20.6805 112.358 20.9273C112.508 21.174 112.707 21.3385 112.955 21.4208C113.221 21.503 113.536 21.5442 113.901 21.5442H114V22.7532H108.926V14.487C108.926 13.4177 108.752 12.5952 108.404 12.0195C108.072 11.4273 107.492 11.1312 106.663 11.1312C106.032 11.1312 105.535 11.3121 105.17 11.674C104.822 12.0359 104.565 12.513 104.399 13.1052C104.25 13.6974 104.175 14.339 104.175 15.0299V19.9156C104.175 20.3926 104.25 20.7463 104.399 20.9766C104.565 21.2069 104.789 21.3632 105.071 21.4455C105.353 21.5113 105.676 21.5442 106.041 21.5442H106.14V22.7532H98.8526Z" fill="#9A9A9A"/>
</svg>
